<svg xmlns="http://www.w3.org/2000/svg" viewBox="0 0 64 64" role="img" aria-label="RefineryMap">
  <defs>
    <linearGradient id="pin" x1="12" y1="6" x2="52" y2="58" gradientUnits="userSpaceOnUse">
      <stop offset="0" stop-color="#0f4ea8"/>
      <stop offset="1" stop-color="#10233f"/>
    </linearGradient>
  </defs>
  <path fill="url(#pin)" d="M32 4c14 0 25 11 25 25 0 17-25 31-25 31S7 46 7 29C7 15 18 4 32 4Z"/>
  <path fill="#ffffff" d="M24 17h9c4 0 7 3 7 7v23H24V17Z"/>
  <path fill="#0f4ea8" d="M27 23h8v4h-8v-4Zm0 9h8v4h-8v-4Zm0 9h8v4h-8v-4Z"/>
  <path fill="none" stroke="#13a65b" stroke-width="5" stroke-linecap="round" stroke-linejoin="round" d="M12 38h12v10h18V34h10"/>
  <circle cx="13" cy="38" r="5" fill="#13a65b"/>
  <circle cx="52" cy="34" r="5" fill="#13a65b"/>
  <circle cx="42" cy="34" r="6" fill="#ffffff"/>
  <circle cx="42" cy="34" r="3.5" fill="#13a65b"/>
  <path fill="#e6262e" d="M40 22h5v9h-5z"/>
</svg>
